<svg width="150" height="184" viewBox="0 0 150 184" fill="none" xmlns="http://www.w3.org/2000/svg">
<path d="M71.0769 22.7354C64.1128 29.719 50.2803 33.5243 50.2803 33.5243C50.2803 33.5243 64.1054 39.0772 71.0769 46.0608C78.0483 53.0518 83.7389 67.0412 83.7389 67.0412C83.7389 67.0412 88.9509 53.0518 95.9224 46.0608C102.886 39.092 117.205 33.5243 117.205 33.5243C117.205 33.5243 102.894 29.719 95.9224 22.7354C88.9509 15.7592 83.7389 0 83.7389 0C83.7389 0 78.0483 15.7445 71.0769 22.7354ZM58.8934 121.273L35.2993 144.915L74.2865 184L136.956 121.258V121.221L139.113 119.068C155.566 104.813 152.136 83.0069 137.074 72.9186H137.008L62.9128 72.8965C38.8918 72.8965 37.1324 63.9734 38.8329 56.6874L41.7555 42.558L11.4329 72.8965V72.8744L7.90671 76.8344C-4.56389 90.1748 -2.08303 111.642 13.9359 121.148L58.8934 121.273Z" fill="white"/>
</svg>
