<svg width="297" height="297" viewBox="0 0 297 297" fill="none" xmlns="http://www.w3.org/2000/svg">
<rect width="297" height="297" rx="30" fill="#01443F"/>
<path d="M144.132 72.2067C136.379 79.9494 120.979 84.1682 120.979 84.1682C120.979 84.1682 136.371 90.3248 144.132 98.0675C151.894 105.818 158.229 121.328 158.229 121.328C158.229 121.328 164.032 105.818 171.794 98.0675C179.547 90.3411 195.488 84.1682 195.488 84.1682C195.488 84.1682 179.555 79.9494 171.794 72.2067C164.032 64.4722 158.229 47 158.229 47C158.229 47 151.894 64.4558 144.132 72.2067ZM130.568 181.455L104.3 207.667L147.706 251L217.478 181.438V181.398L219.879 179.01C238.197 163.206 234.378 139.029 217.609 127.845H217.535L135.043 127.82C108.3 127.82 106.341 117.927 108.234 109.849L111.488 94.1838L77.7287 127.82V127.795L73.8028 132.186C59.9189 146.976 62.6809 170.777 80.5153 181.316L130.568 181.455Z" fill="#1CBDB1"/>
</svg>
