<svg width="840" height="146" viewBox="0 0 840 146" fill="none" xmlns="http://www.w3.org/2000/svg">
<path d="M55.7661 19.0726C50.3022 24.5423 39.4493 27.5227 39.4493 27.5227C39.4493 27.5227 50.2964 31.8719 55.7661 37.3416C61.2359 42.8171 65.7006 53.7739 65.7006 53.7739C65.7006 53.7739 69.7899 42.8171 75.2597 37.3416C80.7236 31.8834 91.9576 27.5227 91.9576 27.5227C91.9576 27.5227 80.7294 24.5423 75.2597 19.0726C69.7899 13.6086 65.7006 1.26562 65.7006 1.26562C65.7006 1.26562 61.2359 13.5971 55.7661 19.0726ZM46.2071 96.2496L27.6955 114.767L58.2844 145.379L107.454 96.238V96.2091L109.147 94.5226C122.056 83.3579 119.364 66.2787 107.547 58.3773H107.495L49.3607 58.36C30.5141 58.36 29.1337 51.3712 30.4679 45.6646L32.7609 34.5981L8.97015 58.36V58.3426L6.20352 61.4443C-3.58078 71.8928 -1.63432 88.7063 10.9339 96.1514L46.2071 96.2496Z" fill="#1CBDB1"/>
<path d="M193.064 17.5049C211.639 17.5049 223.953 22.836 229.752 32.8167L215.225 47.3487C214.492 38.7831 206.666 34.6707 193.191 34.6707C180.195 34.6707 174.217 37.9168 174.217 45.3272V46.8867C174.217 54.1642 179.935 57.803 190.464 60.1423L209.698 65.3405C226.592 69.759 236.088 77.4294 236.088 95.2364C236.088 117.728 223.733 127.471 194.883 127.471C173.79 127.471 160.898 121.407 154.972 109.763L168.597 96.1374C175.667 107.1 178.942 110.184 195.276 110.184C209.178 110.184 215.289 106.678 215.289 98.2225V95.889C215.162 87.3061 210.611 84.32 197.355 81.3281L178.248 76.0027C163.035 71.5842 153.424 63.1341 153.424 47.2794C153.424 27.913 166.934 17.5049 193.064 17.5049ZM409.548 36.4901H366.31L363.971 64.5608C369.949 58.0629 378.399 54.1642 391.655 54.1642C410.894 54.1642 427.009 64.0467 427.009 86.7863V90.8236C427.009 116.035 412.581 127.471 385.937 127.471C358.646 127.471 342.918 115.908 342.918 94.2025V91.9903H363.711V96.1489C363.711 105.639 371.901 109.924 385.417 109.924C399.192 109.924 406.21 105.246 406.21 94.8494V87.566C406.21 77.0424 399.972 71.5784 386.324 71.5784C374.501 71.5784 368.003 75.8699 363.711 81.7266H344.079L347.978 18.8102H427.223L409.548 36.4901ZM319.202 89.2583H331.158V106.938H319.202V126.172H298.923V106.938H244.983V88.2245L299.183 18.8044H319.202V89.2583ZM263.702 89.2583H298.923V45.7142L263.702 89.2583Z" fill="#1CBDB1"/>
<path d="M813.983 56.3589C806.618 56.3589 802.168 61.1154 802.168 67.2529C802.168 83.3637 839.76 79.6813 839.76 103.771C839.76 116.966 828.406 126.94 812.602 126.94C803.396 126.94 793.423 123.257 788.052 118.347V99.4746H794.343C797.258 113.284 803.549 119.728 813.216 119.728C821.808 119.728 827.486 114.665 827.486 107.607C827.486 89.8081 790.2 94.2578 790.2 70.7819C790.2 58.3535 800.788 49.3008 814.75 49.3008C823.803 49.3008 831.321 52.2161 836.385 55.8986V74.1575H829.94C827.792 63.5704 823.343 56.3589 813.983 56.3589Z" fill="white"/>
<path d="M709.623 66.6391L697.962 59.8879V57.2795L720.364 49.3008H723.126V61.8826C729.417 55.7451 737.549 49.3008 747.522 49.3008C760.718 49.3008 767.469 59.8879 767.469 70.9354V111.75C767.469 116.966 772.379 119.115 779.284 119.575V125.405H742.152V119.575C749.056 119.115 753.966 116.966 753.966 111.75V77.3797C753.966 65.2582 748.443 59.8879 739.237 59.8879C733.252 59.8879 726.962 63.2635 723.126 67.4063V111.75C723.126 116.966 728.036 119.115 734.94 119.575V125.405H697.809V119.575C704.713 119.115 709.623 116.966 709.623 111.75V66.6391Z" fill="white"/>
<path d="M639.505 83.3637C639.505 101.009 650.092 114.511 665.589 114.511C672.801 114.511 680.012 112.21 685.996 105.459L689.372 108.374C684.155 118.961 674.335 126.94 661.14 126.94C642.113 126.94 627.69 111.596 627.69 89.5012C627.69 66.946 641.96 49.3008 660.526 49.3008C680.319 49.3008 688.605 67.0994 688.605 81.5225H639.505V83.3637ZM658.071 56.5123C650.246 56.5123 642.881 62.9567 640.426 74.6178H673.721C673.568 65.4116 668.351 56.5123 658.071 56.5123Z" fill="white"/>
<path d="M560.767 35.3384V106.993C560.767 115.279 565.37 118.961 578.872 118.961C600.967 118.961 606.491 107.761 611.094 93.7978H618.152L612.782 125.406H531V119.268C540.973 118.808 546.651 116.046 546.651 108.067V35.3384C546.651 27.3596 540.973 24.5978 531 24.1375V18H576.417V24.1375C566.444 24.5978 560.767 27.3596 560.767 35.3384Z" fill="white"/>
<path d="M479 0V144" stroke="#1CBDB1" stroke-width="6"/>
</svg>
